<svg xmlns="http://www.w3.org/2000/svg" viewBox="0 0 1480.0 1080.0" width="1480.0mm" height="1080.0mm">
  <style>
        .sheet-outline { stroke: #6b8e7f; stroke-width: 1; fill: none; stroke-dasharray: 2,2; }
        .profile-cuts { stroke: #e8e8e8; stroke-width: 2; fill: none; }
        .waste-cuts { stroke: #ff9500; stroke-width: 2; fill: none; stroke-dasharray: 8,4; }
        .pocket-regions { stroke: #6496c8; stroke-width: 1.5; fill: #6496c8; fill-opacity: 0.2; }
        .holes { stroke: #e8e8e8; stroke-width: 1.5; fill: none; }
        .engrave-paths { stroke: #888888; stroke-width: 0.25; fill: none; }
        .construction { stroke: #6b8e7f; stroke-width: 0.5; fill: none; stroke-dasharray: 2,2; }
        .dimensions { stroke: #5ab9ea; stroke-width: 1; fill: none; }
        .dimension-text { fill:
        .gap-dimensions { stroke: #ff9500; stroke-width: 1; fill: none; }
        .gap-text { fill:
        .notes { fill: #cccccc; font-family: monospace; font-size: 10px; }
        .legend { fill: #cccccc; font-family: monospace; font-size: 10px; }
        .part-label { fill: #ffcc00; font-family: monospace; font-size: 8px; font-weight: bold; }
    </style>
  <rect x="0" y="0" width="1480.0" height="1080.0" fill="#1a1a1a" />
  <g id="SHEET_OUTLINE" class="sheet-outline">
    <rect x="140" y="140" width="1200.0" height="800.0" />
  </g>
  <g id="PROFILE_CUTS" class="profile-cuts">
    <path d="M 150.000 930.000 L 350.000 930.000 L 350.000 836.000 L 150.000 836.000 Z" fill-rule="evenodd" />
    <polyline points="150.0,846.4444444444445 144.0,846.4444444444445 144.0,856.8888888888889 150.0,856.8888888888889" />
    <polyline points="150.0,867.3333333333334 144.0,867.3333333333334 144.0,877.7777777777778 150.0,877.7777777777778" />
    <polyline points="150.0,888.2222222222222 144.0,888.2222222222222 144.0,898.6666666666666 150.0,898.6666666666666" />
    <polyline points="150.0,909.1111111111111 144.0,909.1111111111111 144.0,919.5555555555555 150.0,919.5555555555555" />
    <polyline points="350.0,919.5555555555555 356.0,919.5555555555555 356.0,909.1111111111111 350.0,909.1111111111111" />
    <polyline points="350.0,898.6666666666666 356.0,898.6666666666666 356.0,888.2222222222222 350.0,888.2222222222222" />
    <polyline points="350.0,877.7777777777778 356.0,877.7777777777778 356.0,867.3333333333334 350.0,867.3333333333334" />
    <polyline points="350.0,856.8888888888889 356.0,856.8888888888889 356.0,846.4444444444445 350.0,846.4444444444445" />
    <path d="M 360.000 930.000 L 560.000 930.000 L 560.000 836.000 L 360.000 836.000 Z" fill-rule="evenodd" />
    <polyline points="560.0,919.5555555555555 566.0,919.5555555555555 566.0,909.1111111111111 560.0,909.1111111111111" />
    <polyline points="560.0,898.6666666666666 566.0,898.6666666666666 566.0,888.2222222222222 560.0,888.2222222222222" />
    <polyline points="560.0,877.7777777777778 566.0,877.7777777777778 566.0,867.3333333333334 560.0,867.3333333333334" />
    <polyline points="560.0,856.8888888888889 566.0,856.8888888888889 566.0,846.4444444444445 560.0,846.4444444444445" />
    <polyline points="360.0,846.4444444444445 354.0,846.4444444444445 354.0,856.8888888888889 360.0,856.8888888888889" />
    <polyline points="360.0,867.3333333333334 354.0,867.3333333333334 354.0,877.7777777777778 360.0,877.7777777777778" />
    <polyline points="360.0,888.2222222222222 354.0,888.2222222222222 354.0,898.6666666666666 360.0,898.6666666666666" />
    <polyline points="360.0,909.1111111111111 354.0,909.1111111111111 354.0,919.5555555555555 360.0,919.5555555555555" />
    <path d="M 570.000 930.000 L 708.000 930.000 L 708.000 836.000 L 570.000 836.000 Z" fill-rule="evenodd" />
    <polyline points="708.0,930.0 714.0,930.0 714.0,919.5555555555555 708.0,919.5555555555555" />
    <polyline points="708.0,909.1111111111111 714.0,909.1111111111111 714.0,898.6666666666666 708.0,898.6666666666666" />
    <polyline points="708.0,888.2222222222222 714.0,888.2222222222222 714.0,877.7777777777778 708.0,877.7777777777778" />
    <polyline points="708.0,867.3333333333334 714.0,867.3333333333334 714.0,856.8888888888889 708.0,856.8888888888889" />
    <polyline points="708.0,846.4444444444445 714.0,846.4444444444445 714.0,836.0 708.0,836.0" />
    <polyline points="570.0,836.0 564.0,836.0 564.0,846.4444444444445 570.0,846.4444444444445" />
    <polyline points="570.0,856.8888888888889 564.0,856.8888888888889 564.0,867.3333333333334 570.0,867.3333333333334" />
    <polyline points="570.0,877.7777777777778 564.0,877.7777777777778 564.0,888.2222222222222 570.0,888.2222222222222" />
    <polyline points="570.0,898.6666666666666 564.0,898.6666666666666 564.0,909.1111111111111 570.0,909.1111111111111" />
    <polyline points="570.0,919.5555555555555 564.0,919.5555555555555 564.0,930.0 570.0,930.0" />
    <path d="M 718.000 930.000 L 856.000 930.000 L 856.000 836.000 L 718.000 836.000 Z" fill-rule="evenodd" />
    <polyline points="718.0,836.0 712.0,836.0 712.0,846.4444444444445 718.0,846.4444444444445" />
    <polyline points="718.0,856.8888888888889 712.0,856.8888888888889 712.0,867.3333333333334 718.0,867.3333333333334" />
    <polyline points="718.0,877.7777777777778 712.0,877.7777777777778 712.0,888.2222222222222 718.0,888.2222222222222" />
    <polyline points="718.0,898.6666666666666 712.0,898.6666666666666 712.0,909.1111111111111 718.0,909.1111111111111" />
    <polyline points="718.0,919.5555555555555 712.0,919.5555555555555 712.0,930.0 718.0,930.0" />
    <polyline points="856.0,930.0 862.0,930.0 862.0,919.5555555555555 856.0,919.5555555555555" />
    <polyline points="856.0,909.1111111111111 862.0,909.1111111111111 862.0,898.6666666666666 856.0,898.6666666666666" />
    <polyline points="856.0,888.2222222222222 862.0,888.2222222222222 862.0,877.7777777777778 856.0,877.7777777777778" />
    <polyline points="856.0,867.3333333333334 862.0,867.3333333333334 862.0,856.8888888888889 856.0,856.8888888888889" />
    <polyline points="856.0,846.4444444444445 862.0,846.4444444444445 862.0,836.0 856.0,836.0" />
    <path d="M 866.000 930.000 L 1060.000 930.000 L 1060.000 786.000 L 866.000 786.000 Z" fill-rule="evenodd" />
  </g>
  <g id="WASTE_CUTS" class="waste-cuts" />
  <g id="POCKET_REGIONS" class="pocket-regions">
    <rect x="150.0" y="918.0" width="200.0" height="6.0" />
    <rect x="360.0" y="918.0" width="200.0" height="6.0" />
    <rect x="570.0" y="918.0" width="138.0" height="6.0" />
    <rect x="718.0" y="918.0" width="138.0" height="6.0" />
  </g>
  <g id="ENGRAVE_PATHS" class="engrave-paths" />
  <g id="HOLES" class="holes" />
  <g id="LABELS" class="labels">
    <text x="250.0" y="883.0" class="part-label" text-anchor="middle" dominant-baseline="middle">FRONT</text>
    <text x="460.0" y="883.0" class="part-label" text-anchor="middle" dominant-baseline="middle">BACK</text>
    <text x="639.0" y="883.0" class="part-label" text-anchor="middle" dominant-baseline="middle">LEFT SIDE</text>
    <text x="787.0" y="883.0" class="part-label" text-anchor="middle" dominant-baseline="middle">RIGHT SIDE</text>
    <text x="963.0" y="858.0" class="part-label" text-anchor="middle" dominant-baseline="middle">BOTTOM</text>
  </g>
  <g id="EDGE_COLORS" class="edge-colors">
    <line x1="350.0" y1="930.0" x2="350.0" y2="836.0" stroke="#ffcc00" stroke-width="3" stroke-linecap="round" />
    <line x1="150.0" y1="930.0" x2="150.0" y2="836.0" stroke="#4cd964" stroke-width="3" stroke-linecap="round" />
    <line x1="560.0" y1="930.0" x2="560.0" y2="836.0" stroke="#ffcc00" stroke-width="3" stroke-linecap="round" />
    <line x1="360.0" y1="930.0" x2="360.0" y2="836.0" stroke="#4cd964" stroke-width="3" stroke-linecap="round" />
    <line x1="708.0" y1="930.0" x2="708.0" y2="836.0" stroke="#ffcc00" stroke-width="3" stroke-linecap="round" />
    <line x1="570.0" y1="930.0" x2="570.0" y2="836.0" stroke="#4cd964" stroke-width="3" stroke-linecap="round" />
    <line x1="856.0" y1="930.0" x2="856.0" y2="836.0" stroke="#ffcc00" stroke-width="3" stroke-linecap="round" />
    <line x1="718.0" y1="930.0" x2="718.0" y2="836.0" stroke="#4cd964" stroke-width="3" stroke-linecap="round" />
  </g>
  <g id="CONSTRUCTION" class="construction" />
  <g id="DIMENSIONS" class="dimensions">
    <line x1="360.0" y1="918.0" x2="360.0" y2="898.0" stroke="#5ab9ea" stroke-width="1" />
    <line x1="560.0" y1="918.0" x2="560.0" y2="898.0" stroke="#5ab9ea" stroke-width="1" />
    <line x1="360.0" y1="898.0" x2="560.0" y2="898.0" stroke="#5ab9ea" stroke-width="1" />
    <polygon points="360.0,898.0 363.0,895.0 363.0,901.0" fill="#5ab9ea" />
    <polygon points="560.0,898.0 557.0,895.0 557.0,901.0" fill="#5ab9ea" />
    <text x="460.0" y="893.0" class="dimension-text" text-anchor="middle" dominant-baseline="middle">200.0mm</text>
    <line x1="560.0" y1="918.0" x2="580.0" y2="918.0" stroke="#5ab9ea" stroke-width="1" />
    <line x1="560.0" y1="924.0" x2="580.0" y2="924.0" stroke="#5ab9ea" stroke-width="1" />
    <line x1="580.0" y1="918.0" x2="580.0" y2="924.0" stroke="#5ab9ea" stroke-width="1" />
    <polygon points="580.0,918.0 577.0,921.0 583.0,921.0" fill="#5ab9ea" />
    <polygon points="580.0,924.0 577.0,921.0 583.0,921.0" fill="#5ab9ea" />
    <text x="585.0" y="921.0" class="dimension-text" text-anchor="middle" dominant-baseline="middle" transform="rotate(-90 585.0 921.0)">6.0mm</text>
    <line x1="570.0" y1="918.0" x2="570.0" y2="878.0" stroke="#5ab9ea" stroke-width="1" />
    <line x1="708.0" y1="918.0" x2="708.0" y2="878.0" stroke="#5ab9ea" stroke-width="1" />
    <line x1="570.0" y1="878.0" x2="708.0" y2="878.0" stroke="#5ab9ea" stroke-width="1" />
    <polygon points="570.0,878.0 573.0,875.0 573.0,881.0" fill="#5ab9ea" />
    <polygon points="708.0,878.0 705.0,875.0 705.0,881.0" fill="#5ab9ea" />
    <text x="639.0" y="873.0" class="dimension-text" text-anchor="middle" dominant-baseline="middle">138.0mm</text>
    <line x1="708.0" y1="918.0" x2="748.0" y2="918.0" stroke="#5ab9ea" stroke-width="1" />
    <line x1="708.0" y1="924.0" x2="748.0" y2="924.0" stroke="#5ab9ea" stroke-width="1" />
    <line x1="748.0" y1="918.0" x2="748.0" y2="924.0" stroke="#5ab9ea" stroke-width="1" />
    <polygon points="748.0,918.0 745.0,921.0 751.0,921.0" fill="#5ab9ea" />
    <polygon points="748.0,924.0 745.0,921.0 751.0,921.0" fill="#5ab9ea" />
    <text x="753.0" y="921.0" class="dimension-text" text-anchor="middle" dominant-baseline="middle" transform="rotate(-90 753.0 921.0)">6.0mm</text>
    <line x1="360.0" y1="836.0" x2="360.0" y2="776.0" stroke="#5ab9ea" stroke-width="1" />
    <line x1="560.0" y1="836.0" x2="560.0" y2="776.0" stroke="#5ab9ea" stroke-width="1" />
    <line x1="360.0" y1="776.0" x2="560.0" y2="776.0" stroke="#5ab9ea" stroke-width="1" />
    <polygon points="360.0,776.0 363.0,773.0 363.0,779.0" fill="#5ab9ea" />
    <polygon points="560.0,776.0 557.0,773.0 557.0,779.0" fill="#5ab9ea" />
    <text x="460.0" y="771.0" class="dimension-text" text-anchor="middle" dominant-baseline="middle">200.0mm</text>
    <line x1="560.0" y1="836.0" x2="620.0" y2="836.0" stroke="#5ab9ea" stroke-width="1" />
    <line x1="560.0" y1="930.0" x2="620.0" y2="930.0" stroke="#5ab9ea" stroke-width="1" />
    <line x1="620.0" y1="836.0" x2="620.0" y2="930.0" stroke="#5ab9ea" stroke-width="1" />
    <polygon points="620.0,836.0 617.0,839.0 623.0,839.0" fill="#5ab9ea" />
    <polygon points="620.0,930.0 617.0,927.0 623.0,927.0" fill="#5ab9ea" />
    <text x="625.0" y="883.0" class="dimension-text" text-anchor="middle" dominant-baseline="middle" transform="rotate(-90 625.0 883.0)">94.0mm</text>
    <line x1="866.0" y1="786.0" x2="866.0" y2="766.0" stroke="#5ab9ea" stroke-width="1" />
    <line x1="1060.0" y1="786.0" x2="1060.0" y2="766.0" stroke="#5ab9ea" stroke-width="1" />
    <line x1="866.0" y1="766.0" x2="1060.0" y2="766.0" stroke="#5ab9ea" stroke-width="1" />
    <polygon points="866.0,766.0 869.0,763.0 869.0,769.0" fill="#5ab9ea" />
    <polygon points="1060.0,766.0 1057.0,763.0 1057.0,769.0" fill="#5ab9ea" />
    <text x="963.0" y="761.0" class="dimension-text" text-anchor="middle" dominant-baseline="middle">194.0mm</text>
    <line x1="1060.0" y1="786.0" x2="1140.0" y2="786.0" stroke="#5ab9ea" stroke-width="1" />
    <line x1="1060.0" y1="930.0" x2="1140.0" y2="930.0" stroke="#5ab9ea" stroke-width="1" />
    <line x1="1140.0" y1="786.0" x2="1140.0" y2="930.0" stroke="#5ab9ea" stroke-width="1" />
    <polygon points="1140.0,786.0 1137.0,789.0 1143.0,789.0" fill="#5ab9ea" />
    <polygon points="1140.0,930.0 1137.0,927.0 1143.0,927.0" fill="#5ab9ea" />
    <text x="1145.0" y="858.0" class="dimension-text" text-anchor="middle" dominant-baseline="middle" transform="rotate(-90 1145.0 858.0)">144.0mm</text>
    <line x1="570.0" y1="836.0" x2="570.0" y2="756.0" stroke="#5ab9ea" stroke-width="1" />
    <line x1="708.0" y1="836.0" x2="708.0" y2="756.0" stroke="#5ab9ea" stroke-width="1" />
    <line x1="570.0" y1="756.0" x2="708.0" y2="756.0" stroke="#5ab9ea" stroke-width="1" />
    <polygon points="570.0,756.0 573.0,753.0 573.0,759.0" fill="#5ab9ea" />
    <polygon points="708.0,756.0 705.0,753.0 705.0,759.0" fill="#5ab9ea" />
    <text x="639.0" y="751.0" class="dimension-text" text-anchor="middle" dominant-baseline="middle">138.0mm</text>
    <line x1="708.0" y1="836.0" x2="808.0" y2="836.0" stroke="#5ab9ea" stroke-width="1" />
    <line x1="708.0" y1="930.0" x2="808.0" y2="930.0" stroke="#5ab9ea" stroke-width="1" />
    <line x1="808.0" y1="836.0" x2="808.0" y2="930.0" stroke="#5ab9ea" stroke-width="1" />
    <polygon points="808.0,836.0 805.0,839.0 811.0,839.0" fill="#5ab9ea" />
    <polygon points="808.0,930.0 805.0,927.0 811.0,927.0" fill="#5ab9ea" />
    <text x="813.0" y="883.0" class="dimension-text" text-anchor="middle" dominant-baseline="middle" transform="rotate(-90 813.0 883.0)">94.0mm</text>
  </g>
  <g id="NOTES" class="notes">
    <text x="20" y="960.0" class="notes" font-weight="bold">NOTES</text>
    <text x="20" y="972.0" class="notes">Sheet: 1200.0 × 800.0 × 6.0mm</text>
    <text x="20" y="984.0" class="notes">Features: 41 profiles, 4 pockets</text>
    <text x="20" y="996.0" class="notes">Depths:</text>
    <text x="30" y="1008.0" class="notes">• pocket: 3.0</text>
    <text x="20" y="1020.0" class="notes">Parts (40):</text>
    <text x="30" y="1032.0" class="notes">• assembly_back_2_back_notch_0</text>
    <text x="30" y="1044.0" class="notes">• assembly_back_2_back_notch_1</text>
    <text x="30" y="1056.0" class="notes">• assembly_back_2_back_notch_2</text>
    <text x="30" y="1068.0" class="notes">• assembly_back_2_back_notch_3</text>
    <text x="30" y="1080.0" class="notes">• assembly_back_2_back_notch_4</text>
    <text x="30" y="1092.0" class="notes">• assembly_back_2_back_notch_5</text>
    <text x="30" y="1104.0" class="notes">• assembly_back_2_back_notch_6</text>
    <text x="30" y="1116.0" class="notes">• assembly_back_2_back_notch_7</text>
    <text x="30" y="1128.0" class="notes">• assembly_back_dado_3</text>
    <text x="30" y="1140.0" class="notes">• assembly_front_0_front_notch_0</text>
    <text x="30" y="1152.0" class="notes">• assembly_front_0_front_notch_1</text>
    <text x="30" y="1164.0" class="notes">• assembly_front_0_front_notch_2</text>
    <text x="30" y="1176.0" class="notes">• assembly_front_0_front_notch_3</text>
    <text x="30" y="1188.0" class="notes">• assembly_front_0_front_notch_4</text>
    <text x="30" y="1200.0" class="notes">• assembly_front_0_front_notch_5</text>
    <text x="30" y="1212.0" class="notes">• assembly_front_0_front_notch_6</text>
    <text x="30" y="1224.0" class="notes">• assembly_front_0_front_notch_7</text>
    <text x="30" y="1236.0" class="notes">• assembly_front_dado_1</text>
    <text x="30" y="1248.0" class="notes">• assembly_left_side_4_left_side_notch_0</text>
    <text x="30" y="1260.0" class="notes">• assembly_left_side_4_left_side_notch_1</text>
    <text x="30" y="1272.0" class="notes">• assembly_left_side_4_left_side_notch_2</text>
    <text x="30" y="1284.0" class="notes">• assembly_left_side_4_left_side_notch_3</text>
    <text x="30" y="1296.0" class="notes">• assembly_left_side_4_left_side_notch_4</text>
    <text x="30" y="1308.0" class="notes">• assembly_left_side_4_left_side_notch_5</text>
    <text x="30" y="1320.0" class="notes">• assembly_left_side_4_left_side_notch_6</text>
    <text x="30" y="1332.0" class="notes">• assembly_left_side_4_left_side_notch_7</text>
    <text x="30" y="1344.0" class="notes">• assembly_left_side_4_left_side_notch_8</text>
    <text x="30" y="1356.0" class="notes">• assembly_left_side_4_left_side_notch_9</text>
    <text x="30" y="1368.0" class="notes">• assembly_left_side_dado_5</text>
    <text x="30" y="1380.0" class="notes">• assembly_right_side_6_right_side_notch_0</text>
    <text x="30" y="1392.0" class="notes">• assembly_right_side_6_right_side_notch_1</text>
    <text x="30" y="1404.0" class="notes">• assembly_right_side_6_right_side_notch_2</text>
    <text x="30" y="1416.0" class="notes">• assembly_right_side_6_right_side_notch_3</text>
    <text x="30" y="1428.0" class="notes">• assembly_right_side_6_right_side_notch_4</text>
    <text x="30" y="1440.0" class="notes">• assembly_right_side_6_right_side_notch_5</text>
    <text x="30" y="1452.0" class="notes">• assembly_right_side_6_right_side_notch_6</text>
    <text x="30" y="1464.0" class="notes">• assembly_right_side_6_right_side_notch_7</text>
    <text x="30" y="1476.0" class="notes">• assembly_right_side_6_right_side_notch_8</text>
    <text x="30" y="1488.0" class="notes">• assembly_right_side_6_right_side_notch_9</text>
    <text x="30" y="1500.0" class="notes">• assembly_right_side_dado_7</text>
  </g>
  <g id="TITLE_BLOCK" class="title-block">
    <text x="20" y="20" class="notes" font-weight="bold" font-size="14px">BLUEPRINT PROOF DRAWING</text>
    <text x="20" y="34" class="notes" font-size="9px">Units: millimeters (mm)</text>
  </g>
  <g id="LEGEND" class="legend">
    <text x="1348.0" y="20" class="legend" font-weight="bold">LEGEND</text>
    <line x1="1348.0" y1="38" x2="1363.0" y2="38" stroke="#6b8e7f" stroke-width="1" stroke-dasharray="2,2" />
    <text x="1368.0" y="41" class="legend">Sheet Outline</text>
    <line x1="1348.0" y1="54" x2="1363.0" y2="54" stroke="#e8e8e8" stroke-width="2" />
    <text x="1368.0" y="57" class="legend">Profile Cuts</text>
    <rect x="1348.0" y="67" width="15.0" height="8" stroke="#6496c8" stroke-width="1.5" fill="#6496c8" fill-opacity="0.2" />
    <text x="1368.0" y="73" class="legend">Pocket Regions</text>
    <line x1="1348.0" y1="86" x2="1363.0" y2="86" stroke="#e8e8e8" stroke-width="1.5" />
    <text x="1368.0" y="89" class="legend">Holes</text>
    <line x1="1348.0" y1="102" x2="1363.0" y2="102" stroke="#5ab9ea" stroke-width="1" />
    <text x="1368.0" y="105" class="legend">Dimensions</text>
  </g>
</svg>