<svg xmlns="http://www.w3.org/2000/svg" viewBox="0 0 680.0 880.0" width="680.0mm" height="880.0mm">
  <style>
        .sheet-outline { stroke: #6b8e7f; stroke-width: 1; fill: none; stroke-dasharray: 2,2; }
        .profile-cuts { stroke: #e8e8e8; stroke-width: 2; fill: none; }
        .waste-cuts { stroke: #ff9500; stroke-width: 2; fill: none; stroke-dasharray: 8,4; }
        .pocket-regions { stroke: #6496c8; stroke-width: 1.5; fill: #6496c8; fill-opacity: 0.2; }
        .holes { stroke: #e8e8e8; stroke-width: 1.5; fill: none; }
        .engrave-paths { stroke: #888888; stroke-width: 1; fill: none; stroke-dasharray: 4,4; }
        .construction { stroke: #6b8e7f; stroke-width: 0.5; fill: none; stroke-dasharray: 2,2; }
        .dimensions { stroke: #5ab9ea; stroke-width: 1; fill: none; }
        .dimension-text { fill:
        .gap-dimensions { stroke: #ff9500; stroke-width: 1; fill: none; }
        .gap-text { fill:
        .notes { fill: #cccccc; font-family: monospace; font-size: 10px; }
        .legend { fill: #cccccc; font-family: monospace; font-size: 10px; }
        .part-label { fill: #ffcc00; font-family: monospace; font-size: 8px; font-weight: bold; }
    </style>
  <rect x="0" y="0" width="680.0" height="880.0" fill="#1a1a1a" />
  <g id="SHEET_OUTLINE" class="sheet-outline">
    <rect x="140" y="140" width="400.0" height="600.0" />
  </g>
  <g id="PROFILE_CUTS" class="profile-cuts">
    <rect x="140.0" y="140.0" width="400.0" height="600.0" />
  </g>
  <g id="WASTE_CUTS" class="waste-cuts" />
  <g id="POCKET_REGIONS" class="pocket-regions">
    <rect x="190.0" y="190.0" width="300.0" height="500.0" />
  </g>
  <g id="ENGRAVE_PATHS" class="engrave-paths" />
  <g id="HOLES" class="holes" />
  <g id="LABELS" class="labels" />
  <g id="CONSTRUCTION" class="construction" />
  <g id="DIMENSIONS" class="dimensions">
    <line x1="190.0" y1="190.0" x2="190.0" y2="170.0" stroke="#5ab9ea" stroke-width="1" />
    <line x1="490.0" y1="190.0" x2="490.0" y2="170.0" stroke="#5ab9ea" stroke-width="1" />
    <line x1="190.0" y1="170.0" x2="490.0" y2="170.0" stroke="#5ab9ea" stroke-width="1" />
    <polygon points="190.0,170.0 193.0,167.0 193.0,173.0" fill="#5ab9ea" />
    <polygon points="490.0,170.0 487.0,167.0 487.0,173.0" fill="#5ab9ea" />
    <text x="340.0" y="165.0" class="dimension-text" text-anchor="middle" dominant-baseline="middle">300.0mm</text>
    <line x1="490.0" y1="190.0" x2="510.0" y2="190.0" stroke="#5ab9ea" stroke-width="1" />
    <line x1="490.0" y1="690.0" x2="510.0" y2="690.0" stroke="#5ab9ea" stroke-width="1" />
    <line x1="510.0" y1="190.0" x2="510.0" y2="690.0" stroke="#5ab9ea" stroke-width="1" />
    <polygon points="510.0,190.0 507.0,193.0 513.0,193.0" fill="#5ab9ea" />
    <polygon points="510.0,690.0 507.0,687.0 513.0,687.0" fill="#5ab9ea" />
    <text x="515.0" y="440.0" class="dimension-text" text-anchor="middle" dominant-baseline="middle" transform="rotate(-90 515.0 440.0)">500.0mm</text>
    <line x1="140.0" y1="140.0" x2="140.0" y2="100.0" stroke="#5ab9ea" stroke-width="1" />
    <line x1="540.0" y1="140.0" x2="540.0" y2="100.0" stroke="#5ab9ea" stroke-width="1" />
    <line x1="140.0" y1="100.0" x2="540.0" y2="100.0" stroke="#5ab9ea" stroke-width="1" />
    <polygon points="140.0,100.0 143.0,97.0 143.0,103.0" fill="#5ab9ea" />
    <polygon points="540.0,100.0 537.0,97.0 537.0,103.0" fill="#5ab9ea" />
    <text x="340.0" y="95.0" class="dimension-text" text-anchor="middle" dominant-baseline="middle">400.0mm</text>
    <line x1="540.0" y1="140.0" x2="580.0" y2="140.0" stroke="#5ab9ea" stroke-width="1" />
    <line x1="540.0" y1="740.0" x2="580.0" y2="740.0" stroke="#5ab9ea" stroke-width="1" />
    <line x1="580.0" y1="140.0" x2="580.0" y2="740.0" stroke="#5ab9ea" stroke-width="1" />
    <polygon points="580.0,140.0 577.0,143.0 583.0,143.0" fill="#5ab9ea" />
    <polygon points="580.0,740.0 577.0,737.0 583.0,737.0" fill="#5ab9ea" />
    <text x="585.0" y="440.0" class="dimension-text" text-anchor="middle" dominant-baseline="middle" transform="rotate(-90 585.0 440.0)">600.0mm</text>
    <line x1="140.0" y1="440.0" x2="190.0" y2="440.0" stroke="#ff9500" stroke-width="1" />
    <path d="M 140.0,440.0 L 143.0,437.0 L 143.0,443.0 Z" class="gap-dimensions" stroke="none" fill="#ff9500" />
    <path d="M 190.0,440.0 L 187.0,437.0 L 187.0,443.0 Z" class="gap-dimensions" stroke="none" fill="#ff9500" />
    <text x="165.0" y="436.0" class="gap-text" text-anchor="middle">50mm</text>
    <line x1="340.0" y1="140.0" x2="340.0" y2="190.0" stroke="#ff9500" stroke-width="1" />
    <path d="M 340.0,140.0 L 337.0,143.0 L 343.0,143.0 Z" class="gap-dimensions" stroke="none" fill="#ff9500" />
    <path d="M 340.0,190.0 L 337.0,187.0 L 343.0,187.0 Z" class="gap-dimensions" stroke="none" fill="#ff9500" />
    <text x="334.0" y="165.0" class="gap-text" text-anchor="middle" dominant-baseline="middle" transform="rotate(-90 334.0 165.0)">50mm</text>
  </g>
  <g id="NOTES" class="notes">
    <text x="20" y="760.0" class="notes" font-weight="bold">NOTES</text>
    <text x="20" y="772.0" class="notes">Sheet: 400.0 × 600.0 × 19.0mm</text>
    <text x="20" y="784.0" class="notes">Features: 1 profile, 1 pocket</text>
    <text x="20" y="796.0" class="notes">Depths:</text>
    <text x="30" y="808.0" class="notes">• pocket: 6.0</text>
  </g>
  <g id="TITLE_BLOCK" class="title-block">
    <text x="20" y="20" class="notes" font-weight="bold" font-size="14px">BLUEPRINT PROOF DRAWING</text>
    <text x="20" y="34" class="notes" font-size="9px">Units: millimeters (mm)</text>
  </g>
  <g id="LEGEND" class="legend">
    <text x="548.0" y="20" class="legend" font-weight="bold">LEGEND</text>
    <line x1="548.0" y1="38" x2="563.0" y2="38" stroke="#6b8e7f" stroke-width="1" stroke-dasharray="2,2" />
    <text x="568.0" y="41" class="legend">Sheet Outline</text>
    <line x1="548.0" y1="54" x2="563.0" y2="54" stroke="#e8e8e8" stroke-width="2" />
    <text x="568.0" y="57" class="legend">Profile Cuts</text>
    <rect x="548.0" y="67" width="15.0" height="8" stroke="#6496c8" stroke-width="1.5" fill="#6496c8" fill-opacity="0.2" />
    <text x="568.0" y="73" class="legend">Pocket Regions</text>
    <line x1="548.0" y1="86" x2="563.0" y2="86" stroke="#e8e8e8" stroke-width="1.5" />
    <text x="568.0" y="89" class="legend">Holes</text>
    <line x1="548.0" y1="102" x2="563.0" y2="102" stroke="#5ab9ea" stroke-width="1" />
    <text x="568.0" y="105" class="legend">Dimensions</text>
  </g>
</svg>
