<svg xmlns="http://www.w3.org/2000/svg" viewBox="0 0 630.0 730.0" width="630.0mm" height="730.0mm">
  <style>
        .sheet-outline { stroke: #6b8e7f; stroke-width: 1; fill: none; stroke-dasharray: 2,2; }
        .profile-cuts { stroke: #e8e8e8; stroke-width: 2; fill: none; }
        .waste-cuts { stroke: #ff9500; stroke-width: 2; fill: none; stroke-dasharray: 8,4; }
        .pocket-regions { stroke: #6496c8; stroke-width: 1.5; fill: #6496c8; fill-opacity: 0.2; }
        .holes { stroke: #e8e8e8; stroke-width: 1.5; fill: none; }
        .engrave-paths { stroke: #888888; stroke-width: 1; fill: none; stroke-dasharray: 4,4; }
        .construction { stroke: #6b8e7f; stroke-width: 0.5; fill: none; stroke-dasharray: 2,2; }
        .dimensions { stroke: #5ab9ea; stroke-width: 1; fill: none; }
        .dimension-text { fill:
        .gap-dimensions { stroke: #ff9500; stroke-width: 1; fill: none; }
        .gap-text { fill:
        .notes { fill: #cccccc; font-family: monospace; font-size: 10px; }
        .legend { fill: #cccccc; font-family: monospace; font-size: 10px; }
        .part-label { fill: #ffcc00; font-family: monospace; font-size: 8px; font-weight: bold; }
    </style>
  <rect x="0" y="0" width="630.0" height="730.0" fill="#1a1a1a" />
  <g id="SHEET_OUTLINE" class="sheet-outline">
    <rect x="140" y="140" width="350.0" height="450.0" />
  </g>
  <g id="PROFILE_CUTS" class="profile-cuts">
    <rect x="140.0" y="140.0" width="350.0" height="450.0" />
  </g>
  <g id="WASTE_CUTS" class="waste-cuts" />
  <g id="POCKET_REGIONS" class="pocket-regions">
    <path d="M 155.000 155.000 L 475.000 155.000 L 475.000 575.000 L 155.000 575.000 Z M 472.000 572.000 L 472.000 158.000 L 158.000 158.000 L 158.000 572.000 Z" fill-rule="evenodd" />
    <path d="M 170.000 170.000 L 460.000 170.000 L 460.000 560.000 L 170.000 560.000 Z M 457.000 557.000 L 457.000 173.000 L 173.000 173.000 L 173.000 557.000 Z" fill-rule="evenodd" />
    <path d="M 185.000 185.000 L 445.000 185.000 L 445.000 545.000 L 185.000 545.000 Z M 442.000 542.000 L 442.000 188.000 L 188.000 188.000 L 188.000 542.000 Z" fill-rule="evenodd" />
  </g>
  <g id="ENGRAVE_PATHS" class="engrave-paths" />
  <g id="HOLES" class="holes" />
  <g id="LABELS" class="labels" />
  <g id="CONSTRUCTION" class="construction" />
  <g id="DIMENSIONS" class="dimensions">
    <line x1="-20.0" y1="380.0" x2="-20.0" y2="120.0" stroke="#5ab9ea" stroke-width="1" />
    <line x1="300.0" y1="380.0" x2="300.0" y2="120.0" stroke="#5ab9ea" stroke-width="1" />
    <line x1="-20.0" y1="120.0" x2="300.0" y2="120.0" stroke="#5ab9ea" stroke-width="1" />
    <polygon points="-20.0,120.0 -17.0,117.0 -17.0,123.0" fill="#5ab9ea" />
    <polygon points="300.0,120.0 297.0,117.0 297.0,123.0" fill="#5ab9ea" />
    <text x="140.0" y="115.0" class="dimension-text" text-anchor="middle" dominant-baseline="middle">320.0mm</text>
    <line x1="300.0" y1="380.0" x2="510.0" y2="380.0" stroke="#5ab9ea" stroke-width="1" />
    <line x1="300.0" y1="800.0" x2="510.0" y2="800.0" stroke="#5ab9ea" stroke-width="1" />
    <line x1="510.0" y1="380.0" x2="510.0" y2="800.0" stroke="#5ab9ea" stroke-width="1" />
    <polygon points="510.0,380.0 507.0,383.0 513.0,383.0" fill="#5ab9ea" />
    <polygon points="510.0,800.0 507.0,797.0 513.0,797.0" fill="#5ab9ea" />
    <text x="515.0" y="590.0" class="dimension-text" text-anchor="middle" dominant-baseline="middle" transform="rotate(-90 515.0 590.0)">420.0mm</text>
    <line x1="-5.0" y1="395.0" x2="-5.0" y2="100.0" stroke="#5ab9ea" stroke-width="1" />
    <line x1="285.0" y1="395.0" x2="285.0" y2="100.0" stroke="#5ab9ea" stroke-width="1" />
    <line x1="-5.0" y1="100.0" x2="285.0" y2="100.0" stroke="#5ab9ea" stroke-width="1" />
    <polygon points="-5.0,100.0 -2.0,97.0 -2.0,103.0" fill="#5ab9ea" />
    <polygon points="285.0,100.0 282.0,97.0 282.0,103.0" fill="#5ab9ea" />
    <text x="140.0" y="95.0" class="dimension-text" text-anchor="middle" dominant-baseline="middle">290.0mm</text>
    <line x1="285.0" y1="395.0" x2="530.0" y2="395.0" stroke="#5ab9ea" stroke-width="1" />
    <line x1="285.0" y1="785.0" x2="530.0" y2="785.0" stroke="#5ab9ea" stroke-width="1" />
    <line x1="530.0" y1="395.0" x2="530.0" y2="785.0" stroke="#5ab9ea" stroke-width="1" />
    <polygon points="530.0,395.0 527.0,398.0 533.0,398.0" fill="#5ab9ea" />
    <polygon points="530.0,785.0 527.0,782.0 533.0,782.0" fill="#5ab9ea" />
    <text x="535.0" y="590.0" class="dimension-text" text-anchor="middle" dominant-baseline="middle" transform="rotate(-90 535.0 590.0)">390.0mm</text>
    <line x1="10.0" y1="410.0" x2="10.0" y2="80.0" stroke="#5ab9ea" stroke-width="1" />
    <line x1="270.0" y1="410.0" x2="270.0" y2="80.0" stroke="#5ab9ea" stroke-width="1" />
    <line x1="10.0" y1="80.0" x2="270.0" y2="80.0" stroke="#5ab9ea" stroke-width="1" />
    <polygon points="10.0,80.0 13.0,77.0 13.0,83.0" fill="#5ab9ea" />
    <polygon points="270.0,80.0 267.0,77.0 267.0,83.0" fill="#5ab9ea" />
    <text x="140.0" y="75.0" class="dimension-text" text-anchor="middle" dominant-baseline="middle">260.0mm</text>
    <line x1="270.0" y1="410.0" x2="550.0" y2="410.0" stroke="#5ab9ea" stroke-width="1" />
    <line x1="270.0" y1="770.0" x2="550.0" y2="770.0" stroke="#5ab9ea" stroke-width="1" />
    <line x1="550.0" y1="410.0" x2="550.0" y2="770.0" stroke="#5ab9ea" stroke-width="1" />
    <polygon points="550.0,410.0 547.0,413.0 553.0,413.0" fill="#5ab9ea" />
    <polygon points="550.0,770.0 547.0,767.0 553.0,767.0" fill="#5ab9ea" />
    <text x="555.0" y="590.0" class="dimension-text" text-anchor="middle" dominant-baseline="middle" transform="rotate(-90 555.0 590.0)">360.0mm</text>
    <line x1="140.0" y1="140.0" x2="140.0" y2="60.0" stroke="#5ab9ea" stroke-width="1" />
    <line x1="490.0" y1="140.0" x2="490.0" y2="60.0" stroke="#5ab9ea" stroke-width="1" />
    <line x1="140.0" y1="60.0" x2="490.0" y2="60.0" stroke="#5ab9ea" stroke-width="1" />
    <polygon points="140.0,60.0 143.0,57.0 143.0,63.0" fill="#5ab9ea" />
    <polygon points="490.0,60.0 487.0,57.0 487.0,63.0" fill="#5ab9ea" />
    <text x="315.0" y="55.0" class="dimension-text" text-anchor="middle" dominant-baseline="middle">350.0mm</text>
    <line x1="490.0" y1="140.0" x2="570.0" y2="140.0" stroke="#5ab9ea" stroke-width="1" />
    <line x1="490.0" y1="590.0" x2="570.0" y2="590.0" stroke="#5ab9ea" stroke-width="1" />
    <line x1="570.0" y1="140.0" x2="570.0" y2="590.0" stroke="#5ab9ea" stroke-width="1" />
    <polygon points="570.0,140.0 567.0,143.0 573.0,143.0" fill="#5ab9ea" />
    <polygon points="570.0,590.0 567.0,587.0 573.0,587.0" fill="#5ab9ea" />
    <text x="575.0" y="365.0" class="dimension-text" text-anchor="middle" dominant-baseline="middle" transform="rotate(-90 575.0 365.0)">450.0mm</text>
  </g>
  <g id="NOTES" class="notes">
    <text x="20" y="610.0" class="notes" font-weight="bold">NOTES</text>
    <text x="20" y="622.0" class="notes">Sheet: 350.0 × 450.0 × 19.0mm</text>
    <text x="20" y="634.0" class="notes">Features: 1 profile, 3 pockets</text>
    <text x="20" y="646.0" class="notes">Depths:</text>
    <text x="30" y="658.0" class="notes">• pocket: 2.0</text>
  </g>
  <g id="TITLE_BLOCK" class="title-block">
    <text x="20" y="20" class="notes" font-weight="bold" font-size="14px">BLUEPRINT PROOF DRAWING</text>
    <text x="20" y="34" class="notes" font-size="9px">Units: millimeters (mm)</text>
  </g>
  <g id="LEGEND" class="legend">
    <text x="498.0" y="20" class="legend" font-weight="bold">LEGEND</text>
    <line x1="498.0" y1="38" x2="513.0" y2="38" stroke="#6b8e7f" stroke-width="1" stroke-dasharray="2,2" />
    <text x="518.0" y="41" class="legend">Sheet Outline</text>
    <line x1="498.0" y1="54" x2="513.0" y2="54" stroke="#e8e8e8" stroke-width="2" />
    <text x="518.0" y="57" class="legend">Profile Cuts</text>
    <rect x="498.0" y="67" width="15.0" height="8" stroke="#6496c8" stroke-width="1.5" fill="#6496c8" fill-opacity="0.2" />
    <text x="518.0" y="73" class="legend">Pocket Regions</text>
    <line x1="498.0" y1="86" x2="513.0" y2="86" stroke="#e8e8e8" stroke-width="1.5" />
    <text x="518.0" y="89" class="legend">Holes</text>
    <line x1="498.0" y1="102" x2="513.0" y2="102" stroke="#5ab9ea" stroke-width="1" />
    <text x="518.0" y="105" class="legend">Dimensions</text>
  </g>
</svg>