<svg xmlns="http://www.w3.org/2000/svg" viewBox="0 0 520.0 820.0" width="520.0mm" height="820.0mm">
  <rect x="0" y="0" width="520.0" height="820.0" fill="#ffffff" />
  <rect x="10.0" y="10.0" width="500" height="800" stroke="#cccccc" fill="none" stroke-width="1" />
  <g id="profile">
    <path d="M 10.000 10.000 L 510.000 10.000 L 510.000 560.000 L 510.000 560.000 L 509.229 579.615 L 506.922 599.109 L 503.092 618.361 L 497.764 637.254 L 490.970 655.671 L 482.752 673.498 L 473.160 690.625 L 462.254 706.946 L 450.101 722.362 L 436.777 736.777 L 422.362 750.101 L 406.946 762.254 L 390.625 773.160 L 373.498 782.752 L 355.671 790.970 L 337.254 797.764 L 318.361 803.092 L 299.109 806.922 L 279.615 809.229 L 260.000 810.000 L 240.385 809.229 L 220.891 806.922 L 201.639 803.092 L 182.746 797.764 L 164.329 790.970 L 146.502 782.752 L 129.375 773.160 L 113.054 762.254 L 97.638 750.101 L 83.223 736.777 L 69.899 722.362 L 57.746 706.946 L 46.840 690.625 L 37.248 673.498 L 29.030 655.671 L 22.236 637.254 L 16.908 618.361 L 13.078 599.109 L 10.771 579.615 L 10.000 560.000 L 10.000 560.000 Z" fill-rule="evenodd" style="stroke:#111111;fill:none;stroke-width:1.5" />
  </g>
  <g id="bevel">
    <path d="M 70.000 70.000 L 450.000 70.000 L 450.000 558.822 L 449.368 574.904 L 447.615 589.715 L 444.705 604.344 L 440.657 618.699 L 435.494 632.692 L 429.250 646.237 L 421.962 659.251 L 413.676 671.652 L 404.442 683.365 L 394.318 694.318 L 383.365 704.442 L 371.652 713.676 L 359.251 721.962 L 346.237 729.250 L 332.692 735.494 L 318.699 740.657 L 304.344 744.705 L 289.715 747.615 L 274.904 749.368 L 260.000 749.954 L 245.096 749.368 L 230.285 747.615 L 215.656 744.705 L 201.301 740.657 L 187.308 735.494 L 173.763 729.250 L 160.749 721.962 L 148.348 713.676 L 136.635 704.442 L 125.682 694.318 L 115.558 683.365 L 106.324 671.652 L 98.038 659.251 L 90.750 646.237 L 84.506 632.692 L 79.343 618.699 L 75.295 604.344 L 72.385 589.715 L 70.632 574.904 L 70.000 558.822 Z M 95.000 95.000 L 425.000 95.000 L 425.000 558.331 L 424.426 572.941 L 422.904 585.801 L 420.377 598.503 L 416.862 610.968 L 412.380 623.118 L 406.958 634.879 L 400.630 646.178 L 393.435 656.946 L 385.417 667.116 L 376.626 676.626 L 367.116 685.417 L 356.946 693.435 L 346.178 700.630 L 334.879 706.958 L 323.118 712.380 L 310.968 716.862 L 298.503 720.377 L 285.801 722.904 L 272.941 724.426 L 260.000 724.934 L 247.059 724.426 L 234.199 722.904 L 221.497 720.377 L 209.032 716.862 L 196.882 712.380 L 185.121 706.958 L 173.822 700.630 L 163.054 693.435 L 152.884 685.417 L 143.374 676.626 L 134.583 667.116 L 126.565 656.946 L 119.370 646.178 L 113.042 634.879 L 107.620 623.118 L 103.138 610.968 L 99.623 598.503 L 97.096 585.801 L 95.574 572.941 L 95.000 558.331 Z" fill-rule="evenodd" style="stroke:#b84a1b;fill:#b84a1b;fill-opacity:0.2;stroke-width:1.0" />
  </g>
  <g id="pocket">
    <path d="M 95.000 95.000 L 425.000 95.000 L 425.000 558.331 L 424.426 572.941 L 422.904 585.801 L 420.377 598.503 L 416.862 610.968 L 412.380 623.118 L 406.958 634.879 L 400.630 646.178 L 393.435 656.946 L 385.417 667.116 L 376.626 676.626 L 367.116 685.417 L 356.946 693.435 L 346.178 700.630 L 334.879 706.958 L 323.118 712.380 L 310.968 716.862 L 298.503 720.377 L 285.801 722.904 L 272.941 724.426 L 260.000 724.934 L 247.059 724.426 L 234.199 722.904 L 221.497 720.377 L 209.032 716.862 L 196.882 712.380 L 185.121 706.958 L 173.822 700.630 L 163.054 693.435 L 152.884 685.417 L 143.374 676.626 L 134.583 667.116 L 126.565 656.946 L 119.370 646.178 L 113.042 634.879 L 107.620 623.118 L 103.138 610.968 L 99.623 598.503 L 97.096 585.801 L 95.574 572.941 L 95.000 558.331 Z" fill-rule="evenodd" style="stroke:#1d70b8;fill:#1d70b8;fill-opacity:0.2;stroke-width:1.0" />
  </g>
</svg>