<svg xmlns="http://www.w3.org/2000/svg" viewBox="0 0 1480.0 1080.0" width="1480.0mm" height="1080.0mm">
  <style>
        .sheet-outline { stroke: #6b8e7f; stroke-width: 1; fill: none; stroke-dasharray: 2,2; }
        .profile-cuts { stroke: #e8e8e8; stroke-width: 2; fill: none; }
        .waste-cuts { stroke: #ff9500; stroke-width: 2; fill: none; stroke-dasharray: 8,4; }
        .pocket-regions { stroke: #6496c8; stroke-width: 1.5; fill: #6496c8; fill-opacity: 0.2; }
        .holes { stroke: #e8e8e8; stroke-width: 1.5; fill: none; }
        .engrave-paths { stroke: #888888; stroke-width: 0.25; fill: none; }
        .construction { stroke: #6b8e7f; stroke-width: 0.5; fill: none; stroke-dasharray: 2,2; }
        .dimensions { stroke: #5ab9ea; stroke-width: 1; fill: none; }
        .dimension-text { fill:
        .gap-dimensions { stroke: #ff9500; stroke-width: 1; fill: none; }
        .gap-text { fill:
        .notes { fill: #cccccc; font-family: monospace; font-size: 10px; }
        .legend { fill: #cccccc; font-family: monospace; font-size: 10px; }
        .part-label { fill: #ffcc00; font-family: monospace; font-size: 8px; font-weight: bold; }
    </style>
  <rect x="0" y="0" width="1480.0" height="1080.0" fill="#1a1a1a" />
  <g id="SHEET_OUTLINE" class="sheet-outline">
    <rect x="140" y="140" width="1200.0" height="800.0" />
  </g>
  <g id="PROFILE_CUTS" class="profile-cuts">
    <rect x="240.0" y="290.0" width="600.0" height="500.0" />
  </g>
  <g id="WASTE_CUTS" class="waste-cuts">
    <rect x="840.0" y="155.0" width="485.0" height="770.0" />
  </g>
  <g id="POCKET_REGIONS" class="pocket-regions" />
  <g id="ENGRAVE_PATHS" class="engrave-paths" />
  <g id="HOLES" class="holes" />
  <g id="LABELS" class="labels" />
  <g id="EDGE_COLORS" class="edge-colors" />
  <g id="CONSTRUCTION" class="construction" />
  <g id="DIMENSIONS" class="dimensions">
    <line x1="240.0" y1="290.0" x2="240.0" y2="270.0" stroke="#5ab9ea" stroke-width="1" />
    <line x1="840.0" y1="290.0" x2="840.0" y2="270.0" stroke="#5ab9ea" stroke-width="1" />
    <line x1="240.0" y1="270.0" x2="840.0" y2="270.0" stroke="#5ab9ea" stroke-width="1" />
    <polygon points="240.0,270.0 243.0,267.0 243.0,273.0" fill="#5ab9ea" />
    <polygon points="840.0,270.0 837.0,267.0 837.0,273.0" fill="#5ab9ea" />
    <text x="540.0" y="265.0" class="dimension-text" text-anchor="middle" dominant-baseline="middle">600.0mm</text>
    <line x1="840.0" y1="290.0" x2="860.0" y2="290.0" stroke="#5ab9ea" stroke-width="1" />
    <line x1="840.0" y1="790.0" x2="860.0" y2="790.0" stroke="#5ab9ea" stroke-width="1" />
    <line x1="860.0" y1="290.0" x2="860.0" y2="790.0" stroke="#5ab9ea" stroke-width="1" />
    <polygon points="860.0,290.0 857.0,293.0 863.0,293.0" fill="#5ab9ea" />
    <polygon points="860.0,790.0 857.0,787.0 863.0,787.0" fill="#5ab9ea" />
    <text x="865.0" y="540.0" class="dimension-text" text-anchor="middle" dominant-baseline="middle" transform="rotate(-90 865.0 540.0)">500.0mm</text>
  </g>
  <g id="NOTES" class="notes">
    <text x="20" y="960.0" class="notes" font-weight="bold">NOTES</text>
    <text x="20" y="972.0" class="notes">Sheet: 1200.0 × 800.0 × 19.0mm</text>
    <text x="20" y="984.0" class="notes">Features: 2 profiles</text>
    <text x="20" y="996.0" class="notes">Parts (1):</text>
    <text x="30" y="1008.0" class="notes">• waste_0_1</text>
  </g>
  <g id="TITLE_BLOCK" class="title-block">
    <text x="20" y="20" class="notes" font-weight="bold" font-size="14px">BLUEPRINT PROOF DRAWING</text>
    <text x="20" y="34" class="notes" font-size="9px">Units: millimeters (mm)</text>
  </g>
  <g id="LEGEND" class="legend">
    <text x="1348.0" y="20" class="legend" font-weight="bold">LEGEND</text>
    <line x1="1348.0" y1="38" x2="1363.0" y2="38" stroke="#6b8e7f" stroke-width="1" stroke-dasharray="2,2" />
    <text x="1368.0" y="41" class="legend">Sheet Outline</text>
    <line x1="1348.0" y1="54" x2="1363.0" y2="54" stroke="#e8e8e8" stroke-width="2" />
    <text x="1368.0" y="57" class="legend">Profile Cuts</text>
    <rect x="1348.0" y="67" width="15.0" height="8" stroke="#6496c8" stroke-width="1.5" fill="#6496c8" fill-opacity="0.2" />
    <text x="1368.0" y="73" class="legend">Pocket Regions</text>
    <line x1="1348.0" y1="86" x2="1363.0" y2="86" stroke="#e8e8e8" stroke-width="1.5" />
    <text x="1368.0" y="89" class="legend">Holes</text>
    <line x1="1348.0" y1="102" x2="1363.0" y2="102" stroke="#5ab9ea" stroke-width="1" />
    <text x="1368.0" y="105" class="legend">Dimensions</text>
    <line x1="1348.0" y1="118" x2="1363.0" y2="118" stroke="#ff9500" stroke-width="2" stroke-dasharray="8,4" />
    <text x="1368.0" y="121" class="legend">Waste Cuts</text>
  </g>
</svg>